<?xml version="1.0" standalone="no"?>
<!DOCTYPE svg PUBLIC "-//W3C//DTD SVG 20010904//EN"
 "http://www.w3.org/TR/2001/REC-SVG-20010904/DTD/svg10.dtd">
<svg version="1.0" xmlns="http://www.w3.org/2000/svg"
 width="200.000000pt" height="200.000000pt" viewBox="0 0 200.000000 200.000000"
 preserveAspectRatio="xMidYMid meet">
<metadata>
Created by potrace 1.14, written by Peter Selinger 2001-2017
</metadata>
<g transform="translate(0.000000,200.000000) scale(0.100000,-0.100000)"
fill="#000000" stroke="none">
<path d="M500 1820 c0 -13 20 -31 63 -56 34 -20 63 -37 65 -38 3 -3 -176
-1018 -180 -1021 -2 -2 -37 -20 -78 -40 -76 -38 -95 -54 -81 -68 4 -4 144 -6
312 -5 274 3 304 5 307 20 2 11 -17 27 -62 53 -36 20 -66 42 -66 48 -1 7 18
121 42 255 31 182 45 240 53 229 6 -8 82 -148 170 -311 l159 -296 207 0 c184
0 208 2 213 17 4 9 3 19 -2 22 -5 3 -29 19 -54 35 -40 26 -63 60 -229 343
-101 173 -185 318 -187 323 -2 4 97 102 220 217 185 174 233 213 280 232 56
22 80 47 55 57 -7 2 -102 3 -212 2 -179 -3 -200 -5 -203 -20 -2 -12 12 -25 47
-42 27 -14 52 -30 55 -35 3 -5 -113 -125 -259 -266 -146 -142 -265 -251 -265
-244 0 8 18 116 40 242 22 125 40 232 40 237 0 6 38 29 85 52 59 30 85 48 85
60 0 17 -20 18 -310 18 -301 0 -310 -1 -310 -20z"/>
<path d="M1430 300 c0 -53 4 -90 10 -90 6 0 10 5 10 10 0 6 7 6 18 -1 48 -30
105 24 86 79 -12 33 -56 52 -84 34 -18 -11 -20 -9 -20 23 0 19 -4 35 -10 35
-6 0 -10 -37 -10 -90z m98 8 c30 -30 3 -83 -39 -76 -32 5 -45 31 -31 62 13 28
49 35 70 14z"/>
<path d="M1600 300 c0 -53 4 -90 10 -90 6 0 10 37 10 90 0 53 -4 90 -10 90 -6
0 -10 -37 -10 -90z"/>
<path d="M676 349 c-11 -13 -14 -24 -8 -28 6 -3 12 -26 14 -50 3 -48 24 -69
54 -56 17 7 17 8 -6 14 -21 6 -25 14 -28 49 -3 37 -1 42 17 42 12 0 21 5 21
10 0 6 -9 10 -19 10 -11 0 -21 7 -23 15 -2 13 -7 12 -22 -6z"/>
<path d="M210 292 c0 -35 5 -54 18 -65 22 -20 53 -22 70 -5 9 9 12 9 12 0 0
-7 5 -12 10 -12 6 0 10 28 10 65 0 37 -4 65 -10 65 -5 0 -10 -19 -10 -43 0
-48 -13 -67 -46 -67 -26 0 -34 17 -34 71 0 21 -4 39 -10 39 -5 0 -10 -22 -10
-48z"/>
<path d="M380 275 c0 -37 4 -65 10 -65 6 0 10 20 10 44 0 49 17 69 52 64 20
-3 23 -9 26 -55 4 -67 22 -70 22 -4 0 55 -17 81 -54 81 -12 0 -27 -5 -34 -12
-9 -9 -12 -9 -12 0 0 7 -4 12 -10 12 -6 0 -10 -28 -10 -65z"/>
<path d="M550 325 c-19 -22 -2 -47 39 -59 17 -5 31 -16 31 -24 0 -11 -9 -13
-40 -9 -40 5 -55 -5 -24 -17 43 -17 84 1 84 36 0 12 -13 21 -41 28 -47 13 -48
35 -1 35 40 0 36 19 -5 23 -18 2 -35 -3 -43 -13z"/>
<path d="M790 320 c-40 -40 -11 -110 45 -110 32 0 65 33 65 65 0 14 -9 34 -20
45 -11 11 -31 20 -45 20 -14 0 -34 -9 -45 -20z m82 -26 c14 -31 1 -57 -31 -62
-28 -4 -51 14 -51 42 0 50 62 65 82 20z"/>
<path d="M940 255 c0 -50 4 -85 10 -85 6 0 10 14 10 30 0 27 2 29 18 19 48
-30 105 24 86 79 -12 33 -56 52 -84 34 -12 -7 -20 -8 -20 -2 0 5 -4 10 -10 10
-6 0 -10 -35 -10 -85z m98 53 c28 -28 7 -78 -33 -78 -27 0 -45 18 -45 45 0 27
18 45 45 45 12 0 26 -5 33 -12z"/>
<path d="M1110 256 c0 -47 5 -88 10 -91 6 -4 10 9 10 31 0 30 3 35 12 26 33
-33 98 5 98 57 0 48 -66 81 -98 49 -9 -9 -12 -9 -12 0 0 7 -4 12 -10 12 -6 0
-10 -35 -10 -84z m98 52 c28 -28 7 -78 -33 -78 -27 0 -45 18 -45 45 0 27 18
45 45 45 12 0 26 -5 33 -12z"/>
<path d="M1293 333 c-25 -10 -12 -20 24 -19 28 1 38 -3 41 -16 3 -14 -3 -18
-31 -18 -42 0 -66 -24 -50 -48 7 -12 25 -17 57 -18 l46 -2 0 48 c0 67 -34 95
-87 73z m65 -80 c-4 -23 -68 -32 -68 -10 0 20 10 27 42 27 23 0 29 -4 26 -17z"/>
<path d="M1688 323 c-52 -60 2 -135 76 -107 29 11 16 21 -26 20 -33 -1 -43 3
-46 17 -3 14 4 17 47 17 57 0 66 15 31 50 -25 25 -62 26 -82 3z m70 -15 c21
-21 13 -28 -28 -28 -38 0 -52 14 -33 33 11 11 48 8 61 -5z"/>
</g>
</svg>
